<?xml version="1.0" encoding="UTF-8" standalone="no"?>
<!-- Created with Inkscape (http://www.inkscape.org/) -->

<svg
   viewBox="0 0 256 256"
   version="1.1"
   id="svg5"
   inkscape:export-filename="logo.svg"
   inkscape:export-xdpi="25.4"
   inkscape:export-ydpi="25.4"
   sodipodi:docname="logo.svg"
   xmlns:inkscape="http://www.inkscape.org/namespaces/inkscape"
   xmlns:sodipodi="http://sodipodi.sourceforge.net/DTD/sodipodi-0.dtd"
   xmlns="http://www.w3.org/2000/svg"
   xmlns:svg="http://www.w3.org/2000/svg">
  <sodipodi:namedview
     id="namedview7"
     pagecolor="#ffffff"
     bordercolor="#000000"
     borderopacity="0.25"
     inkscape:showpageshadow="2"
     inkscape:pageopacity="0.0"
     inkscape:pagecheckerboard="0"
     inkscape:deskcolor="#d1d1d1"
     inkscape:document-units="mm"
     showgrid="true">
    <inkscape:grid
       type="xygrid"
       id="grid16"
       originx="128"
       originy="128"
       enabled="false" />
  </sodipodi:namedview>
  <defs
     id="defs2">
    <linearGradient
       id="linearGradient22802"
       inkscape:swatch="solid">
      <stop
         style="stop-color:#575656;stop-opacity:1;"
         offset="0"
         id="stop22800" />
    </linearGradient>
    <linearGradient
       id="linearGradient9042"
       inkscape:swatch="solid">
      <stop
         style="stop-color:#e4abb9;stop-opacity:1;"
         offset="0"
         id="stop9040" />
    </linearGradient>
    <marker
       style="overflow:visible"
       id="Dot"
       refX="0"
       refY="0"
       orient="auto"
       inkscape:stockid="Dot"
       markerWidth="1"
       markerHeight="1"
       viewBox="0 0 5.6666667 5.6666667"
       inkscape:isstock="true"
       inkscape:collect="always"
       preserveAspectRatio="xMidYMid">
      <path
         transform="scale(0.5)"
         style="fill:context-stroke;fill-rule:evenodd;stroke:context-stroke;stroke-width:1pt"
         d="M 5,0 C 5,2.76 2.76,5 0,5 -2.76,5 -5,2.76 -5,0 c 0,-2.76 2.3,-5 5,-5 2.76,0 5,2.24 5,5 z"
         id="Dot1"
         sodipodi:nodetypes="sssss" />
    </marker>
    <marker
       style="overflow:visible"
       id="SemiCircleIn"
       refX="0"
       refY="0"
       orient="auto-start-reverse"
       inkscape:stockid="SemiCircleIn"
       markerWidth="0.55000001"
       markerHeight="0.98420852"
       viewBox="0 0 3.8 6.8"
       inkscape:isstock="true"
       inkscape:collect="always"
       preserveAspectRatio="xMidYMid">
      <path
         style="fill:context-stroke;fill-rule:evenodd;stroke:context-stroke;stroke-width:0.6pt"
         d="m 2.7752958,-0.02741555 c 0,1.65599995 -1.344,2.99999995 -3.00000001,2.99999995 v -6 c 1.65600001,0 3.00000001,1.344 3.00000001,3.00000005 z"
         id="path180" />
    </marker>
  </defs>
  <g
     inkscape:groupmode="layer"
     id="layer2"
     inkscape:label="Layer 2"
     style="display:inline">
    <circle
       style="display:none;fill:none;fill-opacity:1;stroke:#0f1e5c;stroke-width:6.5;stroke-linejoin:round;stroke-dasharray:none;stroke-dashoffset:0;stroke-opacity:1;paint-order:normal"
       id="path16494"
       cx="128.29962"
       cy="128.34106"
       r="122.58172" />
    <path
       sodipodi:type="spiral"
       style="display:none;fill:none;fill-opacity:1;fill-rule:evenodd;stroke:#f1efef;stroke-width:32.4651;stroke-dasharray:none;stroke-dashoffset:0;stroke-opacity:1;marker-start:url(#SemiCircleIn);marker-end:url(#Dot)"
       id="path2744"
       sodipodi:cx="100.91166"
       sodipodi:cy="133.38385"
       sodipodi:expansion="1"
       sodipodi:revolution="2.9597418"
       sodipodi:radius="122.22519"
       sodipodi:argument="-19.096968"
       sodipodi:t0="0.12537512"
       d="M 93.386156,146.7327 C 81.174682,145.40654 75.69317,131.49362 78.569523,120.78832 c 4.577238,-17.03571 24.281337,-24.172763 40.007697,-18.7399 21.87379,7.55658 30.74258,33.38291 22.66315,54.07102 -10.43938,26.731 -42.508057,37.35405 -68.134327,26.58641 C 41.50556,169.42797 29.117878,131.06054 42.596366,100.50821 58.688914,64.030458 103.38608,49.8723 138.85733,66.075268 180.21748,84.968232 196.1498,136.01399 177.21353,176.39955 155.52933,222.64563 98.122622,240.35463 52.82593,218.67901 1.6913985,194.20984 -17.796055,130.43365 6.6232097,80.228093 33.872895,24.203245 104.02471,2.936018 159.13744,30.102111 c 20.1284,9.921663 37.21426,25.571613 49.01573,44.64511"
       transform="matrix(0.86050068,0,0,0.86050068,41.360979,22.074539)" />
  </g>
  <path
     style="display:inline;fill:#0bbefe;fill-opacity:1;stroke:#0f1e5c;stroke-width:10;stroke-linecap:round;stroke-linejoin:miter;stroke-dasharray:none;stroke-dashoffset:0;stroke-opacity:1;paint-order:stroke fill markers"
     d="M 180.93075,79.763178 C 162.2732,52.916286 118.93892,32.745989 85.624893,46.942458 51.279847,61.578287 56.989019,115.3478 107.32664,141.65849 55.331647,21.055856 180.93075,79.763178 180.93075,79.763178 Z"
     id="path16462"
     sodipodi:nodetypes="cscc" />
  <path
     style="fill:#0bbefe;fill-opacity:1;stroke:#0f1e5c;stroke-width:10;stroke-linecap:round;stroke-linejoin:miter;stroke-dasharray:none;stroke-dashoffset:0;stroke-opacity:1;paint-order:stroke fill markers"
     d="m 50.932321,185.04492 c 20.858441,20.41485 97.774849,49.15553 128.387369,21.23378 33.61473,-30.66007 -18.16278,-96.58301 -54.01063,-101.66478 70.75003,109.74689 -74.376739,80.431 -74.376739,80.431 z"
     id="path16476"
     sodipodi:nodetypes="cscc" />
</svg>
